<svg id="Layer_1" data-name="Layer 1" xmlns="http://www.w3.org/2000/svg" viewBox="0 0 3452.77 2770.24"><defs><style>.cls-1{fill:#fff;}.cls-1,.cls-13{stroke:#1d1d1b;stroke-miterlimit:10;stroke-width:2px;}.cls-2{font-size:63px;}.cls-14,.cls-2,.cls-30{fill:#1d1d1b;}.cls-2,.cls-30{font-family:MyriadPro-Regular, Myriad Pro;}.cls-3{letter-spacing:-0.06em;}.cls-4{letter-spacing:0em;}.cls-5{letter-spacing:0.01em;}.cls-6{letter-spacing:-0.01em;}.cls-7{letter-spacing:-0.03em;}.cls-8{letter-spacing:0em;}.cls-9{letter-spacing:-0.03em;}.cls-10{letter-spacing:0em;}.cls-11{letter-spacing:0em;}.cls-12{letter-spacing:-0.01em;}.cls-13{fill:none;}.cls-15{letter-spacing:-0.01em;}.cls-16{letter-spacing:0.01em;}.cls-17{letter-spacing:0em;}.cls-18{letter-spacing:-0.02em;}.cls-19{letter-spacing:-0.01em;}.cls-20{letter-spacing:0em;}.cls-21{letter-spacing:0em;}.cls-22{letter-spacing:-0.01em;}.cls-23{letter-spacing:-0.01em;}.cls-24{letter-spacing:-0.01em;}.cls-25{letter-spacing:-0.01em;}.cls-26{letter-spacing:-0.03em;}.cls-27{letter-spacing:0.01em;}.cls-28{letter-spacing:0.01em;}.cls-29{letter-spacing:0.03em;}.cls-30{font-size:128px;}.cls-31{letter-spacing:0em;}.cls-32{letter-spacing:-0.01em;}.cls-33{letter-spacing:-0.01em;}</style></defs><title>clarti-ai</title><rect class="cls-1" x="1493.33" y="265.98" width="725.81" height="348.39"/><text class="cls-2" transform="translate(1699.9 458.66)"><tspan class="cls-3">T</tspan><tspan x="27.28" y="0">ask</tspan><tspan class="cls-4" x="112.14" y="0">P</tspan><tspan x="145.34" y="0">lanner</tspan></text><rect class="cls-1" x="1493.33" y="849.37" width="725.81" height="348.39"/><text class="cls-2" transform="translate(1716.38 1042.05)"><tspan class="cls-5">S</tspan><tspan x="31.44" y="0">equen</tspan><tspan class="cls-6" x="199.71" y="0">c</tspan><tspan x="227.55" y="0">er</tspan></text><rect class="cls-1" x="693.88" y="562.27" width="725.81" height="348.39"/><text class="cls-2" transform="translate(914.65 754.96)"><tspan class="cls-7">P</tspan><tspan class="cls-8" x="31.88" y="0">a</tspan><tspan x="61.99" y="0">th</tspan><tspan class="cls-9" x="117.81" y="0">F</tspan><tspan x="146.85" y="0">inder</tspan></text><rect class="cls-1" x="1926.51" y="1373.72" width="725.81" height="348.39"/><text class="cls-2" transform="translate(2183.29 1566.4)"><tspan class="cls-10">A</tspan><tspan class="cls-11" x="38.37" y="0">r</tspan><tspan x="59.22" y="0">m API</tspan></text><rect class="cls-1" x="1127.06" y="1373.72" width="725.81" height="348.39"/><text class="cls-2" transform="translate(1344.34 1566.4)"><tspan class="cls-5">M</tspan><tspan x="51.03" y="0">otion API</tspan></text><rect class="cls-1" x="2725.96" y="1373.72" width="725.81" height="348.39"/><text class="cls-2" transform="translate(2949.57 1566.4)"><tspan class="cls-5">S</tspan><tspan x="31.44" y="0">ensor API</tspan></text><rect class="cls-1" x="327.6" y="1373.72" width="725.81" height="348.39"/><text class="cls-2" transform="translate(526.8 1566.4)"><tspan class="cls-12">L</tspan><tspan x="28.85" y="0">oc</tspan><tspan class="cls-8" x="91.66" y="0">a</tspan><tspan x="121.78" y="0">tion API</tspan></text><line class="cls-13" x1="1347.11" y1="517.61" x2="1460.64" y2="425.7"/><polygon class="cls-14" points="1336.14 526.49 1356.72 520.29 1347.93 516.94 1346.49 507.65 1336.14 526.49"/><polygon class="cls-14" points="1471.62 416.81 1461.27 435.65 1459.82 426.36 1451.04 423.02 1471.62 416.81"/><line class="cls-13" x1="1623.23" y1="649.07" x2="1623.23" y2="802.69"/><polygon class="cls-14" points="1623.23 816.82 1615.1 796.92 1623.23 801.64 1631.36 796.92 1623.23 816.82"/><line class="cls-13" x1="2039.36" y1="797.46" x2="2039.36" y2="663.19"/><polygon class="cls-14" points="2039.36 649.07 2047.49 668.97 2039.36 664.25 2031.23 668.97 2039.36 649.07"/><line class="cls-13" x1="1766.31" y1="1242.8" x2="1728.54" y2="1335.99"/><polygon class="cls-14" points="1771.62 1229.72 1756.61 1245.1 1765.92 1243.78 1771.68 1251.21 1771.62 1229.72"/><polygon class="cls-14" points="1723.23 1349.07 1723.17 1327.58 1728.93 1335.01 1738.24 1333.69 1723.23 1349.07"/><line class="cls-13" x1="1968.95" y1="1235.53" x2="2019.45" y2="1323.91"/><polygon class="cls-14" points="1961.94 1223.27 1964.76 1244.58 1969.47 1236.44 1978.87 1236.51 1961.94 1223.27"/><polygon class="cls-14" points="2026.46 1336.17 2009.53 1322.93 2018.93 1322.99 2023.64 1314.86 2026.46 1336.17"/><line class="cls-13" x1="2774.85" y1="1316.81" x2="2258.35" y2="1048.56"/><polygon class="cls-14" points="2245.81 1042.05 2267.22 1044.01 2259.28 1049.05 2259.73 1058.44 2245.81 1042.05"/><line class="cls-13" x1="945.81" y1="1320.04" x2="1449.7" y2="1030.6"/><polygon class="cls-14" points="1461.94 1023.56 1448.74 1040.53 1448.78 1031.12 1440.64 1026.43 1461.94 1023.56"/><rect class="cls-1" x="327.6" y="1875.78" width="725.81" height="348.39"/><text class="cls-2" transform="translate(508.88 2068.47)">UWB <tspan class="cls-11" x="141.56" y="0">R</tspan><tspan x="175.7" y="0">e</tspan><tspan class="cls-6" x="207.27" y="0">c</tspan><tspan x="235.11" y="0">ei</tspan><tspan class="cls-15" x="281.42" y="0">v</tspan><tspan x="311.09" y="0">er</tspan></text><rect class="cls-1" x="1127.06" y="1875.78" width="725.81" height="348.39"/><text class="cls-2" transform="translate(1327.39 2068.47)"><tspan class="cls-5">M</tspan><tspan x="51.03" y="0">otion Base</tspan><tspan x="-26.05" y="75.6">(Holonomous)</tspan></text><rect class="cls-1" x="1926.51" y="1875.78" width="725.81" height="348.39"/><text class="cls-2" transform="translate(2011.62 2068.47)"><tspan class="cls-16">D</tspan><tspan class="cls-17" x="42.84" y="0">ynami</tspan><tspan class="cls-18" x="205.13" y="0">x</tspan><tspan x="233.35" y="0">el </tspan><tspan class="cls-19" x="293.13" y="0">C</tspan><tspan class="cls-20" x="328.98" y="0">o</tspan><tspan class="cls-21" x="363.57" y="0">n</tspan><tspan x="398.28" y="0">t</tspan><tspan class="cls-22" x="419.13" y="0">r</tspan><tspan class="cls-20" x="439.1" y="0">oller</tspan></text><rect class="cls-1" x="2725.96" y="1875.78" width="725.81" height="348.39"/><text class="cls-2" transform="translate(2915.71 2068.47)"><tspan class="cls-5">S</tspan><tspan x="31.44" y="0">ensor </tspan><tspan class="cls-11" x="191.45" y="0">B</tspan><tspan x="225.85" y="0">oa</tspan><tspan class="cls-15" x="290.8" y="0">r</tspan><tspan x="310.77" y="0">d</tspan></text><text class="cls-2" transform="translate(2055.49 715.27)">plan<tspan x="0" y="75.6">un</tspan><tspan class="cls-23" x="69.68" y="75.6">c</tspan><tspan x="97.52" y="75.6">ompletable</tspan></text><text class="cls-2" transform="translate(1644.36 754.96)">plan <tspan class="cls-24" x="129.4" y="0">f</tspan><tspan x="146.98" y="0">ound</tspan></text><line class="cls-13" x1="690.51" y1="1759.97" x2="690.51" y2="1834.95"/><polygon class="cls-14" points="690.51 1745.85 682.38 1765.74 690.51 1761.02 698.64 1765.74 690.51 1745.85"/><polygon class="cls-14" points="690.51 1849.07 682.38 1829.17 690.51 1833.9 698.64 1829.17 690.51 1849.07"/><line class="cls-13" x1="1493.33" y1="1759.97" x2="1493.33" y2="1834.95"/><polygon class="cls-14" points="1493.33 1745.85 1485.2 1765.74 1493.33 1761.02 1501.46 1765.74 1493.33 1745.85"/><polygon class="cls-14" points="1493.33 1849.07 1485.2 1829.17 1493.33 1833.9 1501.46 1829.17 1493.33 1849.07"/><line class="cls-13" x1="2289.41" y1="1759.97" x2="2289.41" y2="1834.95"/><polygon class="cls-14" points="2289.41 1745.85 2281.28 1765.74 2289.41 1761.02 2297.54 1765.74 2289.41 1745.85"/><polygon class="cls-14" points="2289.41 1849.07 2281.28 1829.17 2289.41 1833.9 2297.54 1829.17 2289.41 1849.07"/><line class="cls-13" x1="3092.23" y1="1759.97" x2="3092.23" y2="1834.95"/><polygon class="cls-14" points="3092.23 1745.85 3084.1 1765.74 3092.23 1761.02 3100.36 1765.74 3092.23 1745.85"/><polygon class="cls-14" points="3092.23 1849.07 3084.1 1829.17 3092.23 1833.9 3100.36 1829.17 3092.23 1849.07"/><text class="cls-2" transform="translate(708.96 1816.81)">USB</text><text class="cls-2" transform="translate(1512.54 1816.81)">USB</text><text class="cls-2" transform="translate(2307.32 1816.81)">USB</text><text class="cls-2" transform="translate(3110.9 1816.81)">USB</text><rect class="cls-1" x="1" y="2420.85" width="725.81" height="348.39"/><text class="cls-2" transform="translate(196.26 2613.54)">UWB <tspan class="cls-11" x="141.56" y="0">B</tspan><tspan x="175.96" y="0">ea</tspan><tspan class="cls-6" x="237.88" y="0">c</tspan><tspan class="cls-20" x="265.73" y="0">on</tspan><tspan x="47.31" y="75.6">(</tspan><tspan class="cls-11" x="65.2" y="75.6">R</tspan><tspan x="99.35" y="75.6">emo</tspan><tspan class="cls-25" x="218.04" y="75.6">t</tspan><tspan x="238.52" y="75.6">e)</tspan></text><rect class="cls-1" x="797.08" y="2420.85" width="725.81" height="348.39"/><text class="cls-2" transform="translate(923.04 2613.54)">UWB <tspan class="cls-11" x="141.56" y="0">R</tspan><tspan x="175.7" y="0">e</tspan><tspan class="cls-25" x="207.27" y="0">c</tspan><tspan x="235.11" y="0">ei</tspan><tspan class="cls-15" x="281.42" y="0">v</tspan><tspan x="311.09" y="0">er (x3)</tspan><tspan x="116.61" y="75.6">(</tspan><tspan class="cls-11" x="134.5" y="75.6">R</tspan><tspan x="168.65" y="75.6">emo</tspan><tspan class="cls-25" x="287.34" y="75.6">t</tspan><tspan x="307.81" y="75.6">e)</tspan></text><line class="cls-13" x1="642.5" y1="2388.3" x2="761.94" y2="2332.94"/><polygon class="cls-14" points="629.68 2394.23 651.16 2393.24 643.46 2387.85 644.32 2378.49 629.68 2394.23"/><line class="cls-13" x1="761.94" y1="2332.94" x2="761.94" y2="2266.42"/><polygon class="cls-14" points="761.94 2252.3 770.07 2272.2 761.94 2267.47 753.81 2272.2 761.94 2252.3"/><line class="cls-13" x1="874.8" y1="2382.14" x2="761.94" y2="2332.94"/><polygon class="cls-14" points="887.75 2387.78 872.76 2372.38 873.84 2381.72 866.26 2387.28 887.75 2387.78"/><text class="cls-2" transform="translate(775.26 2332.94)">UWB</text><path class="cls-13" d="M539.14,2397.18c13,75.25,130,77.55,146.64-.09" transform="translate(472.36 -130.8)"/><polygon class="cls-14" points="1010.33 2252.3 1004.11 2272.88 1011.76 2267.41 1020.3 2271.34 1010.33 2252.3"/><polygon class="cls-14" points="1159.98 2252.3 1165.22 2273.14 1157.84 2267.32 1149.13 2270.85 1159.98 2252.3"/><text class="cls-2" transform="translate(1186.24 2310.36)"><tspan class="cls-26">U</tspan><tspan class="cls-20" x="38.62" y="0">A</tspan><tspan class="cls-27" x="77.17" y="0">R</tspan><tspan x="111.63" y="0">T</tspan></text><rect class="cls-1" x="2532.81" y="562.27" width="725.81" height="348.39"/><text class="cls-2" transform="translate(2682.72 754.96)"><tspan class="cls-11">D</tspan><tspan x="42.21" y="0">ebug </tspan><tspan class="cls-28" x="192.9" y="0">I</tspan><tspan class="cls-21" x="208.59" y="0">n</tspan><tspan class="cls-25" x="243.3" y="0">t</tspan><tspan x="263.78" y="0">e</tspan><tspan class="cls-29" x="295.34" y="0">r</tspan><tspan x="317.83" y="0">fa</tspan><tspan class="cls-25" x="366.59" y="0">c</tspan><tspan x="394.44" y="0">e</tspan></text><line class="cls-13" x1="2481.18" y1="854.83" x2="2284.64" y2="937.16"/><polygon class="cls-14" points="2494.2 849.37 2472.71 849.56 2480.2 855.24 2478.99 864.56 2494.2 849.37"/><polygon class="cls-14" points="2271.62 942.62 2286.83 927.43 2285.62 936.76 2293.11 942.43 2271.62 942.62"/><text class="cls-30" transform="translate(1695.61 107.14)">Cl<tspan class="cls-31" x="104.45" y="0">A</tspan><tspan class="cls-32" x="182.4" y="0">r</tspan><tspan class="cls-33" x="222.46" y="0">T</tspan><tspan x="284.54" y="0">i</tspan></text><text class="cls-2" transform="translate(1685.54 170.28)">RPI - <tspan class="cls-10" x="128.52" y="0">A</tspan><tspan class="cls-22" x="166.89" y="0">r</tspan><tspan x="186.86" y="0">duino</tspan></text></svg>