<svg id="Layer_1" data-name="Layer 1" xmlns="http://www.w3.org/2000/svg" viewBox="0 0 2566.74 1877.18"><defs><style>.cls-1{fill:#fff;}.cls-1,.cls-17{stroke:#1d1d1b;stroke-miterlimit:10;stroke-width:2px;}.cls-2{font-size:63px;}.cls-18,.cls-2,.cls-25{fill:#1d1d1b;}.cls-2,.cls-25{font-family:MyriadPro-Regular, Myriad Pro;}.cls-3{letter-spacing:0.02em;}.cls-4{letter-spacing:0.01em;}.cls-5{letter-spacing:-0.01em;}.cls-6{letter-spacing:0em;}.cls-7{letter-spacing:0.01em;}.cls-8{letter-spacing:-0.03em;}.cls-9{letter-spacing:0em;}.cls-10{letter-spacing:-0.01em;}.cls-11{letter-spacing:0em;}.cls-12{letter-spacing:-0.01em;}.cls-13{letter-spacing:-0.02em;}.cls-14{letter-spacing:-0.01em;}.cls-15{letter-spacing:-0.01em;}.cls-16{letter-spacing:0.01em;}.cls-17{fill:none;}.cls-19{letter-spacing:0em;}.cls-20{letter-spacing:0.01em;}.cls-21{letter-spacing:0em;}.cls-22{letter-spacing:0.03em;}.cls-23{letter-spacing:0em;}.cls-24{letter-spacing:0em;}.cls-25{font-size:128px;}.cls-26{letter-spacing:-0.07em;}</style></defs><title>summer-ai</title><rect class="cls-1" x="800.45" y="466.61" width="725.81" height="348.39"/><text class="cls-2" transform="translate(900.3 659.3)">S<tspan class="cls-3" x="31.06" y="0">k</tspan><tspan x="61.68" y="0">ipping </tspan><tspan class="cls-4" x="246.39" y="0">S</tspan><tspan x="277.82" y="0">equen</tspan><tspan class="cls-5" x="446.09" y="0">c</tspan><tspan class="cls-6" x="473.94" y="0">er</tspan></text><rect class="cls-1" x="1" y="1527.79" width="725.81" height="348.39"/><text class="cls-2" transform="translate(157.17 1720.47)"><tspan class="cls-7">M</tspan><tspan x="51.41" y="0">ini </tspan><tspan class="cls-8" x="129.21" y="0">P</tspan><tspan class="cls-9" x="161.09" y="0">a</tspan><tspan class="cls-6" x="191.2" y="0">th</tspan><tspan class="cls-8" x="247.02" y="0">F</tspan><tspan x="276.06" y="0">inder</tspan></text><rect class="cls-1" x="800.45" y="990.96" width="725.81" height="348.39"/><text class="cls-2" transform="translate(1099.54 1183.64)">Cl<tspan class="cls-10" x="51.41" y="0">a</tspan><tspan x="81.27" y="0">w</tspan></text><rect class="cls-1" x="1" y="990.96" width="725.81" height="348.39"/><text class="cls-2" transform="translate(218.28 1183.64)"><tspan class="cls-4">M</tspan><tspan x="51.03" y="0">otion API</tspan><tspan x="-75.44" y="75.6">(</tspan><tspan class="cls-11" x="-57.55" y="75.6">S</tspan><tspan class="cls-12" x="-26.68" y="75.6">t</tspan><tspan x="-6.2" y="75.6">epper </tspan><tspan class="cls-4" x="162.57" y="75.6">M</tspan><tspan x="213.6" y="75.6">o</tspan><tspan class="cls-12" x="248.18" y="75.6">t</tspan><tspan x="268.66" y="75.6">ors)</tspan></text><rect class="cls-1" x="1599.9" y="990.96" width="725.81" height="348.39"/><text class="cls-2" transform="translate(1730.37 1183.64)"><tspan class="cls-13">P</tspan><tspan class="cls-14" x="32.51" y="0">r</tspan><tspan class="cls-15" x="52.48" y="0">o</tspan><tspan x="86.18" y="0">ximi</tspan><tspan class="cls-16" x="197.38" y="0">t</tspan><tspan class="cls-6" x="218.8" y="0">y </tspan><tspan class="cls-4" x="261.83" y="0">S</tspan><tspan x="293.26" y="0">ensors</tspan></text><line class="cls-17" x1="753.13" y1="649.56" x2="374.98" y2="948.34"/><polygon class="cls-18" points="764.21 640.8 743.55 646.76 752.3 650.21 753.63 659.52 764.21 640.8"/><polygon class="cls-18" points="363.9 957.1 374.48 938.38 375.81 947.69 384.56 951.14 363.9 957.1"/><line class="cls-17" x1="1196.81" y1="867.77" x2="1196.81" y2="942.98"/><polygon class="cls-18" points="1196.81 853.65 1188.68 873.55 1196.81 868.83 1204.93 873.55 1196.81 853.65"/><polygon class="cls-18" points="1196.81 957.1 1188.68 937.2 1196.81 941.92 1204.93 937.2 1196.81 957.1"/><line class="cls-17" x1="1962.81" y1="936.41" x2="1572.14" y2="649.17"/><polygon class="cls-18" points="1560.76 640.8 1581.61 646.04 1572.99 649.79 1571.98 659.14 1560.76 640.8"/><rect class="cls-1" x="1839.94" y="179.51" width="725.81" height="348.39"/><text class="cls-2" transform="translate(1989.84 372.2)"><tspan class="cls-19">D</tspan><tspan x="42.21" y="0">ebug </tspan><tspan class="cls-20" x="192.9" y="0">I</tspan><tspan class="cls-21" x="208.59" y="0">n</tspan><tspan class="cls-12" x="243.3" y="0">t</tspan><tspan x="263.78" y="0">e</tspan><tspan class="cls-22" x="295.34" y="0">r</tspan><tspan x="317.83" y="0">fa</tspan><tspan class="cls-12" x="366.59" y="0">c</tspan><tspan x="394.44" y="0">e</tspan><tspan x="98.47" y="75.6">(PC </tspan><tspan class="cls-23" x="199.77" y="75.6">A</tspan><tspan class="cls-24" x="238.14" y="75.6">p</tspan><tspan class="cls-23" x="273.98" y="75.6">p</tspan><tspan class="cls-6" x="309.64" y="75.6">)</tspan></text><line class="cls-17" x1="1788.3" y1="472.07" x2="1591.77" y2="554.41"/><polygon class="cls-18" points="1801.32 466.61 1779.83 466.8 1787.32 472.48 1786.11 481.8 1801.32 466.61"/><polygon class="cls-18" points="1578.74 559.86 1593.95 544.67 1592.74 554 1600.23 559.67 1578.74 559.86"/><text class="cls-25" transform="translate(950.67 107.14)">Summer</text><text class="cls-2" transform="translate(1614.44 466.61)">USB</text><line class="cls-17" x1="363.9" y1="1487.8" x2="363.9" y2="1391.91"/><polygon class="cls-18" points="363.9 1501.93 372.03 1482.03 363.9 1486.75 355.77 1482.03 363.9 1501.93"/><polygon class="cls-18" points="363.9 1377.79 372.03 1397.69 363.9 1392.96 355.77 1397.69 363.9 1377.79"/><text class="cls-2" transform="translate(1089.58 165.83)"><tspan class="cls-26">T</tspan><tspan x="26.84" y="0">eensy</tspan></text></svg>