<svg id="Layer_1" data-name="Layer 1" xmlns="http://www.w3.org/2000/svg" viewBox="0 0 3925.61 2770.24"><defs><style>.cls-1{fill:#fff;}.cls-1,.cls-21{stroke:#1d1d1b;stroke-miterlimit:10;stroke-width:2px;}.cls-2{font-size:63px;}.cls-2,.cls-22,.cls-38{fill:#1d1d1b;}.cls-2,.cls-38{font-family:MyriadPro-Regular, Myriad Pro;}.cls-3{letter-spacing:-0.06em;}.cls-4{letter-spacing:0em;}.cls-5{letter-spacing:0.01em;}.cls-6{letter-spacing:-0.01em;}.cls-7{letter-spacing:-0.03em;}.cls-8{letter-spacing:0em;}.cls-9{letter-spacing:-0.03em;}.cls-10{letter-spacing:-0.01em;}.cls-11{letter-spacing:0.01em;}.cls-12{letter-spacing:-0.02em;}.cls-13{letter-spacing:-0.01em;}.cls-14{letter-spacing:-0.01em;}.cls-15{letter-spacing:0.01em;}.cls-16{letter-spacing:0em;}.cls-17{letter-spacing:0.01em;}.cls-18{letter-spacing:0em;}.cls-19{letter-spacing:0em;}.cls-20{letter-spacing:-0.01em;}.cls-21,.cls-42{fill:none;}.cls-23{letter-spacing:-0.01em;}.cls-24{letter-spacing:-0.04em;}.cls-25{letter-spacing:-0.01em;}.cls-26{letter-spacing:-0.04em;}.cls-27{letter-spacing:-0.04em;}.cls-28{letter-spacing:0em;}.cls-29{letter-spacing:-0.01em;}.cls-30{letter-spacing:0em;}.cls-31{letter-spacing:-0.01em;}.cls-32{letter-spacing:-0.01em;}.cls-33{letter-spacing:-0.03em;}.cls-34{letter-spacing:0.01em;}.cls-35{letter-spacing:0.01em;}.cls-36{letter-spacing:0em;}.cls-37{letter-spacing:0.03em;}.cls-38{font-size:128px;}.cls-39{letter-spacing:-0.02em;}.cls-40{letter-spacing:0em;}.cls-41{letter-spacing:-0.01em;}.cls-43{letter-spacing:0em;}.cls-44{letter-spacing:-0.07em;}.cls-45{letter-spacing:0em;}</style></defs><title>winter-ai</title><rect class="cls-1" x="1966.18" y="265.98" width="725.81" height="348.39"/><text class="cls-2" transform="translate(2172.75 458.66)"><tspan class="cls-3">T</tspan><tspan x="27.28" y="0">ask</tspan><tspan class="cls-4" x="112.14" y="0">P</tspan><tspan x="145.34" y="0">lanner</tspan></text><rect class="cls-1" x="1966.18" y="849.37" width="725.81" height="348.39"/><text class="cls-2" transform="translate(2189.22 1042.05)"><tspan class="cls-5">S</tspan><tspan x="31.44" y="0">equen</tspan><tspan class="cls-6" x="199.71" y="0">c</tspan><tspan x="227.55" y="0">er</tspan></text><rect class="cls-1" x="1166.73" y="562.27" width="725.81" height="348.39"/><text class="cls-2" transform="translate(1387.5 754.96)"><tspan class="cls-7">P</tspan><tspan class="cls-8" x="31.88" y="0">a</tspan><tspan x="61.99" y="0">th</tspan><tspan class="cls-9" x="117.81" y="0">F</tspan><tspan x="146.85" y="0">inder</tspan></text><rect class="cls-1" x="2399.36" y="1373.72" width="725.81" height="348.39"/><text class="cls-2" transform="translate(2626.02 1566.4)"><tspan class="cls-10">A</tspan><tspan class="cls-11" x="37.8" y="0">c</tspan><tspan x="66.84" y="0">tion API</tspan></text><rect class="cls-1" x="1599.9" y="1373.72" width="725.81" height="348.39"/><text class="cls-2" transform="translate(1817.18 1566.4)"><tspan class="cls-5">M</tspan><tspan x="51.03" y="0">otion API</tspan></text><rect class="cls-1" x="3198.81" y="1373.72" width="725.81" height="348.39"/><text class="cls-2" transform="translate(3291.51 1566.4)"><tspan class="cls-12">P</tspan><tspan class="cls-13" x="32.51" y="0">r</tspan><tspan class="cls-14" x="52.48" y="0">o</tspan><tspan x="86.18" y="0">ximi</tspan><tspan class="cls-15" x="197.38" y="0">t</tspan><tspan class="cls-16" x="218.8" y="0">y </tspan><tspan class="cls-5" x="261.83" y="0">S</tspan><tspan x="293.26" y="0">ensor API</tspan></text><rect class="cls-1" x="800.45" y="1373.72" width="725.81" height="348.39"/><text class="cls-2" transform="translate(961.66 1566.4)"><tspan class="cls-17">G</tspan><tspan class="cls-18" x="41.2" y="0">ame </tspan><tspan class="cls-19" x="169.03" y="0">S</tspan><tspan x="199.9" y="0">t</tspan><tspan class="cls-8" x="220.75" y="0">a</tspan><tspan class="cls-20" x="250.86" y="0">t</tspan><tspan x="271.34" y="0">e API</tspan></text><line class="cls-21" x1="1819.96" y1="517.61" x2="1933.49" y2="425.7"/><polygon class="cls-22" points="1808.98 526.49 1829.57 520.29 1820.78 516.94 1819.34 507.65 1808.98 526.49"/><polygon class="cls-22" points="1944.47 416.81 1934.12 435.65 1932.67 426.36 1923.89 423.02 1944.47 416.81"/><line class="cls-21" x1="2096.08" y1="649.07" x2="2096.08" y2="802.69"/><polygon class="cls-22" points="2096.08 816.82 2087.95 796.92 2096.08 801.64 2104.21 796.92 2096.08 816.82"/><line class="cls-21" x1="2512.21" y1="797.46" x2="2512.21" y2="663.19"/><polygon class="cls-22" points="2512.21 649.07 2520.34 668.97 2512.21 664.25 2504.08 668.97 2512.21 649.07"/><line class="cls-21" x1="2239.16" y1="1242.8" x2="2201.39" y2="1335.99"/><polygon class="cls-22" points="2244.47 1229.72 2229.46 1245.1 2238.76 1243.78 2244.53 1251.21 2244.47 1229.72"/><polygon class="cls-22" points="2196.08 1349.07 2196.02 1327.58 2201.78 1335.01 2211.09 1333.69 2196.08 1349.07"/><line class="cls-21" x1="2441.8" y1="1235.53" x2="2492.3" y2="1323.91"/><polygon class="cls-22" points="2434.79 1223.27 2437.6 1244.58 2442.32 1236.44 2451.72 1236.51 2434.79 1223.27"/><polygon class="cls-22" points="2499.31 1336.17 2482.37 1322.93 2491.78 1322.99 2496.49 1314.86 2499.31 1336.17"/><line class="cls-21" x1="3247.69" y1="1316.81" x2="2731.19" y2="1048.56"/><polygon class="cls-22" points="2718.66 1042.05 2740.07 1044.01 2732.13 1049.05 2732.57 1058.44 2718.66 1042.05"/><line class="cls-21" x1="1418.66" y1="1320.04" x2="1922.55" y2="1030.6"/><polygon class="cls-22" points="1934.79 1023.56 1921.59 1040.53 1921.63 1031.12 1913.49 1026.43 1934.79 1023.56"/><rect class="cls-1" x="800.45" y="1875.78" width="725.81" height="348.39"/><text class="cls-2" transform="translate(901.31 2068.47)"><tspan class="cls-23">C</tspan><tspan class="cls-18" x="35.78" y="0">us</tspan><tspan class="cls-6" x="95.44" y="0">t</tspan><tspan class="cls-18" x="115.92" y="0">om</tspan><tspan class="cls-24" x="203.05" y="0"> </tspan><tspan class="cls-12" x="214.14" y="0">V</tspan><tspan x="248.28" y="0">i</tspan><tspan class="cls-25" x="263.02" y="0">v</tspan><tspan x="292.7" y="0">e</tspan><tspan class="cls-26" x="324.26" y="0"> </tspan><tspan class="cls-27" x="335.03" y="0">T</tspan><tspan class="cls-28" x="363.51" y="0">r</tspan><tspan class="cls-18" x="383.79" y="0">acker</tspan></text><rect class="cls-1" x="1599.9" y="1875.78" width="725.81" height="348.39"/><text class="cls-2" transform="translate(1800.24 2068.47)"><tspan class="cls-5">M</tspan><tspan x="51.03" y="0">otion Base</tspan><tspan x="-0.95" y="75.6">(Di</tspan><tspan class="cls-29" x="73.65" y="75.6">ff</tspan><tspan x="109.56" y="75.6">e</tspan><tspan class="cls-13" x="141.12" y="75.6">r</tspan><tspan x="161.09" y="75.6">e</tspan><tspan class="cls-8" x="192.65" y="75.6">n</tspan><tspan x="227.36" y="75.6">tial)</tspan></text><rect class="cls-1" x="2399.36" y="1875.78" width="725.81" height="348.39"/><text class="cls-2" transform="translate(2534.58 2068.47)"><tspan class="cls-10">A</tspan><tspan class="cls-11" x="37.8" y="0">c</tspan><tspan x="66.84" y="0">tion D</tspan><tspan class="cls-30" x="227.3" y="0">r</tspan><tspan x="248.15" y="0">i</tspan><tspan class="cls-25" x="262.89" y="0">v</tspan><tspan x="292.57" y="0">er (x4)</tspan></text><rect class="cls-1" x="3198.81" y="1875.78" width="725.81" height="348.39"/><text class="cls-2" transform="translate(3388.56 2068.47)"><tspan class="cls-5">S</tspan><tspan x="31.44" y="0">ensor </tspan><tspan class="cls-30" x="191.45" y="0">B</tspan><tspan x="225.85" y="0">oa</tspan><tspan class="cls-25" x="290.8" y="0">r</tspan><tspan x="310.77" y="0">d</tspan></text><text class="cls-2" transform="translate(2534.12 715.27)">plan<tspan x="0" y="75.6">un</tspan><tspan class="cls-31" x="69.68" y="75.6">c</tspan><tspan x="97.52" y="75.6">ompletable</tspan></text><text class="cls-2" transform="translate(2117.21 754.96)">plan <tspan class="cls-32" x="129.4" y="0">f</tspan><tspan x="146.98" y="0">ound</tspan></text><line class="cls-21" x1="1163.35" y1="1759.97" x2="1163.35" y2="1834.95"/><polygon class="cls-22" points="1163.36 1745.85 1155.22 1765.74 1163.36 1761.02 1171.48 1765.74 1163.36 1745.85"/><polygon class="cls-22" points="1163.36 1849.07 1155.22 1829.17 1163.36 1833.9 1171.48 1829.17 1163.36 1849.07"/><line class="cls-21" x1="1966.18" y1="1759.97" x2="1966.18" y2="1834.95"/><polygon class="cls-22" points="1966.18 1745.85 1958.05 1765.74 1966.18 1761.02 1974.31 1765.74 1966.18 1745.85"/><polygon class="cls-22" points="1966.18 1849.07 1958.05 1829.17 1966.18 1833.9 1974.31 1829.17 1966.18 1849.07"/><line class="cls-21" x1="2762.26" y1="1759.97" x2="2762.26" y2="1834.95"/><polygon class="cls-22" points="2762.26 1745.85 2754.13 1765.74 2762.26 1761.02 2770.39 1765.74 2762.26 1745.85"/><polygon class="cls-22" points="2762.26 1849.07 2754.13 1829.17 2762.26 1833.9 2770.39 1829.17 2762.26 1849.07"/><line class="cls-21" x1="3565.08" y1="1759.97" x2="3565.08" y2="1834.95"/><polygon class="cls-22" points="3565.08 1745.85 3556.95 1765.74 3565.08 1761.02 3573.21 1765.74 3565.08 1745.85"/><polygon class="cls-22" points="3565.08 1849.07 3556.95 1829.17 3565.08 1833.9 3573.21 1829.17 3565.08 1849.07"/><text class="cls-2" transform="translate(1181.81 1816.81)">USB</text><text class="cls-2" transform="translate(1985.39 1816.81)">USB</text><text class="cls-2" transform="translate(2780.16 1816.81)">USB</text><text class="cls-2" transform="translate(3583.74 1816.81)">USB</text><rect class="cls-1" x="394.54" y="2420.85" width="725.81" height="348.39"/><text class="cls-2" transform="translate(543.53 2613.54)"><tspan class="cls-12">V</tspan><tspan x="34.15" y="0">i</tspan><tspan class="cls-25" x="48.89" y="0">v</tspan><tspan x="78.56" y="0">e </tspan><tspan class="cls-30" x="123.48" y="0">B</tspan><tspan x="157.88" y="0">ea</tspan><tspan class="cls-20" x="219.8" y="0">c</tspan><tspan x="247.65" y="0">on (x2)</tspan><tspan x="93.58" y="75.6">(</tspan><tspan class="cls-30" x="111.48" y="75.6">R</tspan><tspan x="145.62" y="75.6">emo</tspan><tspan class="cls-20" x="264.31" y="75.6">t</tspan><tspan x="284.79" y="75.6">e)</tspan></text><rect class="cls-1" x="1" y="1875.78" width="725.81" height="348.39"/><text class="cls-2" transform="translate(46.54 2068.47)"><tspan class="cls-23">C</tspan><tspan class="cls-18" x="35.78" y="0">us</tspan><tspan class="cls-6" x="95.44" y="0">t</tspan><tspan class="cls-18" x="115.92" y="0">om</tspan><tspan class="cls-24" x="203.05" y="0"> </tspan><tspan class="cls-12" x="214.14" y="0">V</tspan><tspan x="248.28" y="0">i</tspan><tspan class="cls-25" x="263.02" y="0">v</tspan><tspan x="292.7" y="0">e</tspan><tspan class="cls-26" x="324.26" y="0"> </tspan><tspan class="cls-27" x="335.03" y="0">T</tspan><tspan class="cls-28" x="363.51" y="0">r</tspan><tspan x="383.79" y="0">acker (x3)</tspan><tspan x="197.03" y="75.6">(</tspan><tspan class="cls-30" x="214.92" y="75.6">R</tspan><tspan x="249.07" y="75.6">emo</tspan><tspan class="cls-20" x="367.76" y="75.6">t</tspan><tspan x="388.23" y="75.6">e)</tspan></text><path class="cls-21" d="M539.14,2397.18c13,75.25,130,77.55,146.64-.09" transform="translate(945.21 -130.8)"/><polygon class="cls-22" points="1483.18 2252.3 1476.96 2272.88 1484.61 2267.41 1493.14 2271.34 1483.18 2252.3"/><polygon class="cls-22" points="1632.83 2252.3 1638.07 2273.14 1630.69 2267.32 1621.97 2270.85 1632.83 2252.3"/><text class="cls-2" transform="translate(1659.09 2310.36)"><tspan class="cls-33">U</tspan><tspan class="cls-18" x="38.62" y="0">A</tspan><tspan class="cls-34" x="77.17" y="0">R</tspan><tspan x="111.63" y="0">T</tspan></text><rect class="cls-1" x="3005.66" y="562.27" width="725.81" height="348.39"/><text class="cls-2" transform="translate(3155.56 754.96)"><tspan class="cls-30">D</tspan><tspan x="42.21" y="0">ebug </tspan><tspan class="cls-35" x="192.9" y="0">I</tspan><tspan class="cls-36" x="208.59" y="0">n</tspan><tspan class="cls-20" x="243.3" y="0">t</tspan><tspan x="263.78" y="0">e</tspan><tspan class="cls-37" x="295.34" y="0">r</tspan><tspan x="317.83" y="0">fa</tspan><tspan class="cls-20" x="366.59" y="0">c</tspan><tspan x="394.44" y="0">e</tspan></text><line class="cls-21" x1="2954.02" y1="854.83" x2="2757.49" y2="937.16"/><polygon class="cls-22" points="2967.05 849.37 2945.55 849.56 2953.05 855.24 2951.84 864.56 2967.05 849.37"/><polygon class="cls-22" points="2744.47 942.62 2759.68 927.43 2758.47 936.76 2765.96 942.43 2744.47 942.62"/><text class="cls-38" transform="translate(2148.56 107.14)"><tspan class="cls-39">W</tspan><tspan x="106.24" y="0">i</tspan><tspan class="cls-40" x="136.19" y="0">n</tspan><tspan class="cls-41" x="206.72" y="0">t</tspan><tspan x="248.32" y="0">er</tspan></text><line class="cls-42" x1="864.42" y1="2388.13" x2="898.9" y2="2252.3"/><line class="cls-21" x1="668.53" y1="1804.89" x2="756.86" y2="1665.58"/><polygon class="cls-22" points="660.97 1816.81 678.49 1804.36 669.1 1804 664.76 1795.66 660.97 1816.81"/><polygon class="cls-22" points="764.42 1653.65 760.63 1674.81 756.29 1666.47 746.9 1666.1 764.42 1653.65"/><text class="cls-2" transform="translate(550.46 1735.23)">X<tspan class="cls-43" x="35.97" y="0">B</tspan><tspan x="70.37" y="0">ee</tspan></text><line class="cls-21" x1="757.44" y1="2395.03" x2="757.44" y2="2323.67"/><line class="cls-21" x1="757.44" y1="2323.67" x2="732.37" y2="2265.27"/><polygon class="cls-22" points="726.8 2252.3 742.13 2267.38 732.79 2266.24 727.18 2273.79 726.8 2252.3"/><line class="cls-21" x1="757.44" y1="2323.67" x2="793.16" y2="2264.39"/><polygon class="cls-22" points="800.45 2252.3 797.15 2273.54 792.62 2265.3 783.22 2265.15 800.45 2252.3"/><text class="cls-2" transform="translate(772.84 2370.85)"><tspan class="cls-35">I</tspan><tspan x="15.69" y="0">nf</tspan><tspan class="cls-28" x="69.05" y="0">r</tspan><tspan x="89.33" y="0">a</tspan><tspan class="cls-30" x="119.7" y="0">R</tspan><tspan x="153.84" y="0">ed</tspan></text><text class="cls-2" transform="translate(1955.81 177.18)">RPI -<tspan class="cls-26" x="115.16" y="0"> </tspan><tspan class="cls-44" x="125.94" y="0">T</tspan><tspan x="152.77" y="0">eensy - </tspan><tspan class="cls-45" x="351.53" y="0">A</tspan><tspan class="cls-13" x="389.9" y="0">r</tspan><tspan x="409.87" y="0">duino - P</tspan><tspan class="cls-5" x="643.98" y="0">S</tspan><tspan x="675.41" y="0">oC</tspan></text></svg>