<svg id="logo" version="1.1" xmlns="http://www.w3.org/2000/svg" xmlns:xlink="http://www.w3.org/1999/xlink" x="0px" y="0px" viewBox="500 360 950 300" enable-background="new 0 0 1920 1080" xml:space="preserve">
<path fill="none" stroke="#FFFFFF" stroke-width="11" stroke-miterlimit="10" d="M712.998,571H597.5c0,0-89.5-8.5-84.5-112.5
	c17-100,170.5-115.5,192.5,4.497l2,112.837" style="stroke-dasharray: 662, 664; stroke-dashoffset: 0;"></path>
<path fill="none" stroke="#FFFFFF" stroke-width="11" stroke-miterlimit="10" d="M586,517v-30c0-24.625,32.5-24.625,32.5-0.375V517
	v-30.375c0-24.125,35-24.125,35,0V517" style="stroke-dasharray: 233, 235; stroke-dashoffset: 0;"></path>
<path fill="none" stroke="#FFFFFF" stroke-width="11" stroke-miterlimit="10" d="M831.333,638.33v-59.666
	c0,0-9.667-22.696-39-22.696s-34.848,25.335-34.848,34.85c0,9.514,5.181,36.848,36.848,36.848s37-30.516,37-30.516V549.33" style="stroke-dasharray: 322, 324; stroke-dashoffset: 0;"></path>
<path fill="none" stroke="#FFFFFF" stroke-width="11" stroke-miterlimit="10" d="M878.999,638.33v-58.666
	c0,0,5.333-24.667,31-23.667" style="stroke-dasharray: 102, 104; stroke-dashoffset: 0;"></path>
<path fill="none" stroke="#FFFFFF" stroke-width="11" stroke-miterlimit="10" d="M951.333,638.33L951.333,517" style="stroke-dasharray: 122, 124; stroke-dashoffset: 0;"></path>
<path fill="none" stroke="#FFFFFF" stroke-width="11" stroke-miterlimit="10" d="M926.666,558.997L973.332,558.997" style="stroke-dasharray: 47, 49; stroke-dashoffset: 0;"></path>
<path fill="none" stroke="#FFFFFF" stroke-width="11" stroke-miterlimit="10" d="M998.666,593.83L1040.666,593.83" style="stroke-dasharray: 42, 44; stroke-dashoffset: 0;"></path>
<path fill="none" stroke="#FFFFFF" stroke-width="11" stroke-miterlimit="10" d="M1082.332,638.33c0,0,0-44.664,0-60.665
	c0-13.035,5.336-31.167,31.168-31.167s28.998,28.998,28.998,28.998v62.834v-62.834c0,0,8.832-26.166,31.833-26.166
	s32.001,13.334,32.001,26.334s0,62.666,0,62.666" style="stroke-dasharray: 435, 437; stroke-dashoffset: 0;"></path>
<path fill="none" stroke="#FFFFFF" stroke-width="11" stroke-miterlimit="10" d="M1246.331,589.997h80c0,0-3.334-39.333-40-39.333
	s-40.939,34.387-41.833,41.833c-3.5,29.167,40.916,73.5,81.833,20.5" style="stroke-dasharray: 326, 328; stroke-dashoffset: 0;"></path>
<path fill="none" stroke="#FFFFFF" stroke-width="11" stroke-miterlimit="10" d="M1369.665,638.33c0,0,0-46,0-59
	s6.666-32.666,32.666-32.666s33.667,24.051,33.667,33.667c0,15.999,0,57.999,0,57.999" style="stroke-dasharray: 223, 225; stroke-dashoffset: 0;"></path>
</svg>
